<svg width="21" height="20" viewBox="0 0 21 20" fill="none" xmlns="http://www.w3.org/2000/svg">
<path d="M10.998 20C9.64388 20 8.34831 19.7363 7.11133 19.209C5.87435 18.6816 4.8099 17.972 3.91797 17.0801C3.02604 16.1882 2.31641 15.1237 1.78906 13.8867C1.26172 12.6497 0.998047 11.3542 0.998047 10C0.998047 8.64583 1.26172 7.35026 1.78906 6.11328C2.31641 4.8763 3.02604 3.81185 3.91797 2.91992C4.8099 2.02799 5.87435 1.31836 7.11133 0.791016C8.34831 0.263672 9.64388 0 10.998 0C12.3522 0 13.6478 0.263672 14.8848 0.791016C16.1217 1.31836 17.1862 2.02799 18.0781 2.91992C18.9701 3.81185 19.6797 4.8763 20.207 6.11328C20.7344 7.35026 20.998 8.64583 20.998 10C20.998 11.3542 20.7344 12.6497 20.207 13.8867C19.6797 15.1237 18.9701 16.1882 18.0781 17.0801C17.1862 17.972 16.1217 18.6816 14.8848 19.209C13.6478 19.7363 12.3522 20 10.998 20ZM15.998 6.25C15.998 5.91146 15.8776 5.61849 15.6367 5.37109C15.3958 5.1237 15.0996 5 14.748 5H7.24805C6.90951 5 6.61654 5.1237 6.36914 5.37109C6.12174 5.61849 5.99805 5.91146 5.99805 6.25V7.5H8.22461C8.97982 6.66667 9.9043 6.25 10.998 6.25C12.0918 6.25 13.0163 6.66667 13.7715 7.5H15.998V6.25ZM8.49805 10C8.49805 10.6901 8.74219 11.2793 9.23047 11.7676C9.71875 12.2559 10.3079 12.5 10.998 12.5C11.6882 12.5 12.2773 12.2559 12.7656 11.7676C13.2539 11.2793 13.498 10.6901 13.498 10C13.498 9.3099 13.2539 8.7207 12.7656 8.23242C12.2773 7.74414 11.6882 7.5 10.998 7.5C10.3079 7.5 9.71875 7.74414 9.23047 8.23242C8.74219 8.7207 8.49805 9.3099 8.49805 10ZM15.998 8.75H14.5137C14.6699 9.17969 14.748 9.59635 14.748 10C14.748 11.0417 14.3835 11.9271 13.6543 12.6562C12.9251 13.3854 12.0397 13.75 10.998 13.75C9.95638 13.75 9.07096 13.3854 8.3418 12.6562C7.61263 11.9271 7.24805 11.0417 7.24805 10C7.24805 9.59635 7.32617 9.17969 7.48242 8.75H5.99805V13.75C5.99805 14.1016 6.11849 14.3978 6.35938 14.6387C6.60026 14.8796 6.89648 15 7.24805 15H14.748C15.0996 15 15.3958 14.8796 15.6367 14.6387C15.8776 14.3978 15.998 14.1016 15.998 13.75V8.75Z" fill="white"/>
</svg>
