<svg width="20" height="19" viewBox="0 0 20 19" fill="none" xmlns="http://www.w3.org/2000/svg">
<path d="M17.8948 8.62404H20C20 3.70779 15.9232 0 10.5159 0V1.91667C14.7917 1.91667 17.8948 4.73704 17.8948 8.62404Z" fill="#585858"/>
<path d="M10.5265 5.74998C12.7401 5.74998 13.6843 6.6096 13.6843 8.62498H15.7895C15.7895 5.53435 13.9211 3.83331 10.5265 3.83331V5.74998ZM14.1285 10.9662C13.9262 10.7988 13.6605 10.7096 13.3873 10.7172C13.1141 10.7249 12.8548 10.829 12.6643 11.0074L10.1454 13.3659C9.5391 13.2604 8.32017 12.9145 7.06546 11.775C5.81074 10.6317 5.43074 9.5191 5.31811 8.97094L7.9065 6.67668C8.10272 6.50335 8.21716 6.2673 8.22561 6.01851C8.23406 5.76971 8.13584 5.52768 7.95176 5.34364L4.06234 1.44993C3.87818 1.26532 3.62222 1.15333 3.34883 1.13777C3.07544 1.1222 2.80615 1.20427 2.59815 1.36656L0.313977 3.15002C0.131991 3.3163 0.0233697 3.53762 0.00871771 3.77198C-0.00707152 4.01156 -0.30812 9.68681 4.52549 14.0894C8.74227 17.9275 14.0243 18.2083 15.479 18.2083C15.6916 18.2083 15.8222 18.2026 15.8569 18.2006C16.1143 18.1875 16.3572 18.0882 16.539 17.9218L18.4969 15.8412C18.6752 15.652 18.7656 15.4069 18.7487 15.158C18.7318 14.9091 18.609 14.676 18.4063 14.5082L14.1285 10.9662Z" fill="#585858"/>
</svg>
