<svg width="22" height="22" viewBox="0 0 22 22" fill="none" xmlns="http://www.w3.org/2000/svg">
<path d="M11 0C4.92525 0 0 4.92525 0 11C0 17.0748 4.92525 22 11 22C17.0748 22 22 17.0748 22 11C22 4.92525 17.0748 0 11 0ZM16.4028 7.53592L14.597 16.0426C14.4641 16.6457 14.1048 16.7924 13.6033 16.5083L10.8533 14.4824L9.52783 15.7603C9.3995 15.9253 9.20058 16.0307 8.97783 16.0307C8.976 16.0307 8.97508 16.0307 8.97325 16.0307L9.1685 13.2312L14.2652 8.62767C14.4852 8.43242 14.2157 8.3215 13.9233 8.51675L7.62667 12.4822L4.91333 11.6353C4.32667 11.4492 4.31017 11.0486 5.03708 10.7608L15.6393 6.67425C16.1324 6.49458 16.5614 6.79158 16.4019 7.53683L16.4028 7.53592Z" fill="white"/>
</svg>
