<svg width="22" height="22" viewBox="0 0 22 22" fill="none" xmlns="http://www.w3.org/2000/svg">
<path d="M11 0C4.92479 0 0 4.92479 0 11C0 17.0752 4.92479 22 11 22C17.0752 22 22 17.0752 22 11C22 4.92479 17.0752 0 11 0ZM15.2304 12.4105C15.2304 12.4105 16.2032 13.3707 16.4427 13.8165C16.4496 13.8256 16.453 13.8348 16.4553 13.8394C16.5527 14.0032 16.5756 14.1304 16.5275 14.2255C16.4473 14.3836 16.1723 14.4616 16.0783 14.4684H14.3596C14.2404 14.4684 13.9906 14.4375 13.6881 14.229C13.4555 14.0662 13.2264 13.7993 13.0029 13.5392C12.6695 13.1519 12.3807 12.8173 12.0897 12.8173C12.0527 12.8172 12.016 12.823 11.9808 12.8345C11.7608 12.9055 11.479 13.2195 11.479 14.0559C11.479 14.3172 11.2727 14.4673 11.1272 14.4673H10.34C10.0719 14.4673 8.6751 14.3733 7.4376 13.0682C5.92281 11.4698 4.55927 8.26375 4.54781 8.23396C4.46187 8.02656 4.63948 7.91542 4.83312 7.91542H6.56906C6.80052 7.91542 6.87615 8.05635 6.92885 8.18125C6.99073 8.32677 7.2176 8.90542 7.59 9.55625C8.19385 10.6173 8.56396 11.0481 8.86073 11.0481C8.91638 11.0475 8.97103 11.0333 9.02 11.0069C9.40729 10.7915 9.3351 9.41073 9.31792 9.12427C9.31792 9.07042 9.31677 8.50667 9.11854 8.23625C8.97646 8.04031 8.73469 7.96583 8.58802 7.93833C8.64738 7.85642 8.72559 7.79 8.81604 7.74469C9.08187 7.61177 9.56083 7.59229 10.0364 7.59229H10.301C10.8167 7.59917 10.9496 7.6324 11.1364 7.67937C11.5145 7.7699 11.5225 8.01396 11.4893 8.84927C11.479 9.08646 11.4686 9.35458 11.4686 9.67083C11.4686 9.73958 11.4652 9.81292 11.4652 9.89083C11.4537 10.3159 11.44 10.7983 11.7402 10.9966C11.7794 11.0211 11.8246 11.0342 11.8708 11.0344C11.9751 11.0344 12.2891 11.0344 13.1393 9.57573C13.4015 9.10623 13.6293 8.61836 13.821 8.11594C13.8382 8.08614 13.8886 7.99448 13.9482 7.95896C13.9922 7.93654 14.041 7.92514 14.0903 7.92573H16.131C16.3533 7.92573 16.5057 7.95896 16.5344 8.0449C16.5848 8.18125 16.5252 8.59719 15.5936 9.85875L15.1777 10.4076C14.3332 11.5145 14.3332 11.5706 15.2304 12.4105Z" fill="white"/>
</svg>
