<svg width="21" height="21" viewBox="0 0 21 21" fill="none" xmlns="http://www.w3.org/2000/svg">
<path d="M12.1811 10.3246L9.82282 9.22417C9.61702 9.12862 9.44797 9.23572 9.44797 9.46357V11.5363C9.44797 11.7641 9.61702 11.8712 9.82282 11.7757L12.1801 10.6753C12.3869 10.5787 12.3869 10.4212 12.1811 10.3246ZM10.498 0.419922C4.93087 0.419922 0.417969 4.93282 0.417969 10.4999C0.417969 16.067 4.93087 20.5799 10.498 20.5799C16.0651 20.5799 20.578 16.067 20.578 10.4999C20.578 4.93282 16.0651 0.419922 10.498 0.419922ZM10.498 14.5949C5.33827 14.5949 5.24797 14.1298 5.24797 10.4999C5.24797 6.87007 5.33827 6.40492 10.498 6.40492C15.6577 6.40492 15.748 6.87007 15.748 10.4999C15.748 14.1298 15.6577 14.5949 10.498 14.5949Z" fill="white"/>
</svg>
